<svg width="20" height="20" viewBox="0 0 20 20" fill="none" xmlns="http://www.w3.org/2000/svg">
<path d="M10 20C15.5228 20 20 15.5228 20 10C20 4.47715 15.5228 0 10 0C4.47715 0 0 4.47715 0 10C0 15.5228 4.47715 20 10 20Z" fill="#FFCC4D"/>
<path d="M5.84168 13.1228C5.86668 13.2223 6.49057 15.5556 10 15.5556C13.51 15.5556 14.1333 13.2223 14.1583 13.1228C14.1889 13.0023 14.1345 12.8773 14.0267 12.8151C13.9183 12.7534 13.7828 12.7717 13.6933 12.8578C13.6828 12.8684 12.6078 13.8889 10 13.8889C7.39223 13.8889 6.31668 12.8684 6.30668 12.8584C6.25334 12.8056 6.18223 12.7778 6.11112 12.7778C6.06445 12.7778 6.01723 12.7895 5.97445 12.8134C5.86557 12.8756 5.81112 13.0017 5.84168 13.1228V13.1228Z" fill="#664500"/>
<path d="M6.66666 9.44443C7.43372 9.44443 8.05555 8.57387 8.05555 7.49999C8.05555 6.4261 7.43372 5.55554 6.66666 5.55554C5.8996 5.55554 5.27777 6.4261 5.27777 7.49999C5.27777 8.57387 5.8996 9.44443 6.66666 9.44443Z" fill="#664500"/>
<path d="M13.3333 9.44443C14.1004 9.44443 14.7222 8.57387 14.7222 7.49999C14.7222 6.4261 14.1004 5.55554 13.3333 5.55554C12.5663 5.55554 11.9445 6.4261 11.9445 7.49999C11.9445 8.57387 12.5663 9.44443 13.3333 9.44443Z" fill="#664500"/>
</svg>
